{"title":"Anonymous 2011 720p BRRip x264 MP4 Multisubs AAC-CC","uid":12542904,"size":2826084224,"categoryP":"video","categoryS":"hd___movies","magnet":"?xt=urn:btih:7f641b91aec31fa24780e44cbdfc054779cac1e8&amp;dn=Anonymous+2011+720p+BRRip+x264+MP4+Multisubs+AAC-CC&amp;tr=udp%3A%2F%2Ftracker.leechers-paradise.org%3A6969&amp;tr=udp%3A%2F%2Fzer0day.ch%3A1337&amp;tr=udp%3A%2F%2Fopen.demonii.com%3A1337&amp;tr=udp%3A%2F%2Ftracker.coppersurfer.tk%3A6969&amp;tr=udp%3A%2F%2Fexodus.desync.com%3A6969","seeders":0,"leechers":1,"uploader":"Caveman44","files":44,"time":1444423932,"description":"http://www.imdb.com/title/tt1521197\r\n\r\nSource: Anonymous.2011.720p.BluRay.x264-SPARKS Thanks!\r\n\r\nSubs: Arabic, Bosnian, Brazilian, Bulgarian, Croatian, Czech, Danish, Dutch, English HI, Farsi Persian, Finnish, French, Greek, Hebrew, Hungarian, Indonesian, Italian, Norwegian, Portuguese, Romanian, Russian, Serbian, Spanish, Swedish, Turkish, Vietnamese.\r\n\r\nSample and Screens included.\r\n\r\nGeneral\r\nComplete name                            : Anonymous 2011 720p BRRip x264 MP4 Multisubs AAC-CC.mp4\r\nFormat                                   : MPEG-4\r\nFormat profile                           : Base Media\r\nCodec ID                                 : isom\r\nFile size                                : 2.60 GiB\r\nDuration                                 : 2h 9mn\r\nOverall bit rate mode                    : Variable\r\nOverall bit rate                         : 2 864 Kbps\r\nEncoded date                             : UTC 2015-10-03 08:19:07\r\nTagged date                              : UTC 2015-10-03 08:19:07\r\nWriting application                      : Yamb 2.1.0.0 \r\n\r\nVideo\r\nID                                       : 1\r\nFormat                                   : AVC\r\nFormat/Info                              : Advanced Video Codec\r\nFormat profile                           :   \r\nFormat settings, CABAC                   : Yes\r\nFormat settings, ReFrames                : 5 frames\r\nCodec ID                                 : avc1\r\nCodec ID/Info                            : Advanced Video Coding\r\nDuration                                 : 2h 9mn\r\nBit rate                                 : 2 500 Kbps\r\nMaximum bit rate                         : 13.5 Mbps\r\nWidth                                    : 1 280 pixels\r\nHeight                                   : 544 pixels\r\nDisplay aspect ratio                     : 2.35:1\r\nFrame rate mode                          : Variable\r\nFrame rate                               : 23.976 fps\r\nMinimum frame rate                       : 15.997 fps\r\nMaximum frame rate                       : 24.390 fps\r\nColor space                              : YUV\r\nChroma subsampling                       : 4:2:0\r\nBit depth                                : 8 bits\r\nScan type                                : Progressive\r\nBits/(Pixel*Frame)                       : 0.150\r\nStream size                              : 2.25 GiB (86%)\r\nWriting library                          : x264 core 112\r\nEncoding settings                        : cabac=1 / ref=5 / deblock=1:0:0 / analyse=0x3:0x113 / me=hex / subme=7 / psy=1 / psy_rd=1.00:0.00 / mixed_ref=1 / me_range=16 / chroma_me=1 / trellis=1 / 8x8dct=1 / cqm=0 / deadzone=21,11 / fast_pskip=1 / chroma_qp_offset=-2 / threads=3 / sliced_threads=0 / nr=0 / decimate=1 / interlaced=0 / constrained_intra=0 / bframes=5 / b_pyramid=2 / b_adapt=2 / b_bias=0 / direct=1 / weightb=1 / open_gop=0 / weightp=2 / keyint=240 / keyint_min=23 / scenecut=40 / intra_refresh=0 / rc_lookahead=50 / rc=abr / mbtree=1 / bitrate=2500 / ratetol=1.0 / qcomp=0.60 / qpmin=3 / qpmax=51 / qpstep=4 / ip_ratio=1.40 / aq=1:1.00\r\nEncoded date                             : UTC 2015-10-03 20:24:27\r\nTagged date                              : UTC 2015-10-03 08:23:09\r\nColor primaries                          : BT.709\r\nTransfer characteristics                 : BT.709\r\nMatrix coefficients                      : BT.709\r\n\r\nAudio\r\nID                                       : 2\r\nFormat                                   : AAC\r\nFormat/Info                              : Advanced Audio Codec\r\nFormat profile                           : LC\r\nCodec ID                                 : 40\r\nDuration                                 : 2h 9mn\r\nBit rate mode                            : Variable\r\nBit rate                                 : 384 Kbps\r\nMaximum bit rate                         : 651 Kbps\r\nChannel(s)                               : 6 channels\r\nChannel positions                        : Front: L C R, Side: L R, LFE\r\nSampling rate                            : 48.0 KHz\r\nCompression mode                         : Lossy\r\nDelay relative to video                  : 83ms\r\nStream size                              : 357 MiB (13%)\r\nLanguage                                 : English\r\nEncoded date                             : UTC 2015-10-03 08:22:17\r\nTagged date                              : UTC 2015-10-03 08:23:09\r\n\r\nEnjoy","torrent":{"xt":"urn:btih:7f641b91aec31fa24780e44cbdfc054779cac1e8","amp;dn":"Anonymous+2011+720p+BRRip+x264+MP4+Multisubs+AAC-CC","amp;tr":["udp%3A%2F%2Ftracker.leechers-paradise.org%3A6969","udp%3A%2F%2Fzer0day.ch%3A1337","udp%3A%2F%2Fopen.demonii.com%3A1337","udp%3A%2F%2Ftracker.coppersurfer.tk%3A6969","udp%3A%2F%2Fexodus.desync.com%3A6969"],"infoHash":"7f641b91aec31fa24780e44cbdfc054779cac1e8","infoHashBuffer":{"type":"Buffer","data":[127,100,27,145,174,195,31,162,71,128,228,76,189,252,5,71,121,202,193,232]},"announce":[],"urlList":[]}}